<?xml version="1.0" encoding="UTF-8" standalone="no" ?>
<!DOCTYPE svg PUBLIC "-//W3C//DTD SVG 1.1//EN" "http://www.w3.org/Graphics/SVG/1.1/DTD/svg11.dtd">
<svg xmlns="http://www.w3.org/2000/svg" xmlns:xlink="http://www.w3.org/1999/xlink" version="1.1" width="640" height="640" viewBox="0 0 640 640" xml:space="preserve">
<desc>Created with Fabric.js 4.6.0</desc>
<defs>
</defs>
<g transform="matrix(1.19 0.15 -0.15 1.19 324.34 348.87)" id="WlrkfrxUJdTntWlf2XBoM"  >
<path style="stroke: rgb(0,0,0); stroke-width: 0; stroke-dasharray: none; stroke-linecap: butt; stroke-dashoffset: 0; stroke-linejoin: miter; stroke-miterlimit: 4; fill: rgb(125,132,225); fill-rule: nonzero; opacity: 1;" vector-effect="non-scaling-stroke"  transform=" translate(0, 0)" d="M 97.18251 -4.81296 L 72.78589 -24.10432 C 72.78589 -24.10432 73.52584999999999 -31.52646 66.23232999999999 -37.689370000000004 C 45.28990999999999 -52.722730000000006 26.72269999999999 -32.323420000000006 26.72269999999999 -32.323420000000006 C 26.72269999999999 -32.323420000000006 15.53457999999999 -42.765660000000004 -1.6205300000000094 -57.683150000000005 C 24.48507999999999 -88.26401000000001 -3.112280000000009 -98.70625000000001 -14.300400000000009 -108.40262000000001 C -25.48852000000001 -118.09899000000001 -41.15189000000001 -105.41912 -50.10238000000001 -108.40262000000001 C -59.05288000000001 -111.38612000000002 -44.88126000000001 -121.08249 -44.88126000000001 -121.08249 C -44.88126000000001 -121.08249 -34.43901000000001 -130.77886 -14.30040000000001 -136.74586 C 5.838219999999989 -142.71285 22.993329999999986 -130.77885999999998 22.993329999999986 -130.77885999999998 L 64.76229999999998 -99.45212999999998 C 64.76229999999998 -99.45212999999998 68.68521999999999 -96.52527999999998 68.49166999999998 -89.75575999999998 C 70.72928999999999 -64.39602999999998 95.34314999999998 -65.14189999999998 98.32664999999999 -68.12539999999998 C 101.31015 -71.10889999999999 106.53126999999999 -68.12539999999998 106.53126999999999 -68.12539999999998 L 132.63688 -47.986789999999985 z M -7.35811 -46.86502 L 17.89962 -24.70007 L -90.86327 132.51641999999998 C -90.86327 132.51641999999998 -108.90451 143.85663 -121.27564 135.09373999999997 C -133.64677 126.33084999999997 -132.61585 106.22775999999996 -132.61585 106.22775999999996 z" stroke-linecap="round" />
</g>
<g transform="matrix(1.34 0 0 1.34 123.61 298.41)" id="hEvbOTXXkwitSw_tldXF-"  >
<path style="stroke: rgb(0,0,0); stroke-width: 0; stroke-dasharray: none; stroke-linecap: butt; stroke-dashoffset: 0; stroke-linejoin: miter; stroke-miterlimit: 4; fill: rgb(125,132,225); fill-rule: nonzero; opacity: 1;" vector-effect="non-scaling-stroke"  transform=" translate(0, 0)" d="M 54.22127 -108.48015 L -87.31718999999998 23.466799999999992 L 11.886160000000018 108.48015 L 43.09146000000002 75.17433 L -20.39411999999998 23.466789999999996 L 87.31719000000001 -77.38791 z" stroke-linecap="round" />
</g>
<g transform="matrix(-1.38 0 0 1.38 513.07 315.03)" id="uXzj5DT4rDg6fptVPzXuU"  >
<path style="stroke: rgb(0,0,0); stroke-width: 0; stroke-dasharray: none; stroke-linecap: butt; stroke-dashoffset: 0; stroke-linejoin: miter; stroke-miterlimit: 4; fill: rgb(125,132,225); fill-rule: nonzero; opacity: 1;" vector-effect="non-scaling-stroke"  transform=" translate(0, 0)" d="M 56.19275 -126.40083 L -86.98099000000002 14.192979999999991 L 42.517529999999994 126.40082999999998 L 71.57736 87.93928999999999 L -20.730329999999995 10.161509999999979 L 86.98098 -90.69319000000002 z" stroke-linecap="round" />
</g>
</svg>